<svg id="svg" version="1.1" xmlns="http://www.w3.org/2000/svg" style="display: block;" viewBox="0 0 512 512"><path d="M0 0 C2.66568838 2.66568838 4.6995963 4.78350803 6.8125 7.765625 C7.32425781 8.48234375 7.83601563 9.1990625 8.36328125 9.9375 C9.17345703 11.0821875 9.17345703 11.0821875 10 12.25 C14.26569074 18.22004121 18.57453211 24.14736671 23 30 C27.75435368 36.29869675 32.39725944 42.6707985 37.00390625 49.078125 C40.9640748 54.58097204 44.97011864 60.04803712 49 65.5 C56.27973499 75.35384607 63.44830669 85.28574813 70.60449219 95.22949219 C78.99083369 106.87860485 87.46850366 118.45683369 96 130 C105.62018486 143.01616849 115.15017155 156.09241732 124.60449219 169.22949219 C130.6923875 177.68593036 136.80868741 186.11888909 143 194.5 C150.30686822 204.39122614 157.50359146 214.35981694 164.68505859 224.34228516 C165.81600223 225.91392362 166.94742837 227.485215 168.0793457 229.05615234 C169.17935317 230.58294921 170.27818017 232.11059738 171.37573242 233.63916016 C173.818562 237.03045321 176.28264073 240.39429327 178.8515625 243.69140625 C179.28114258 244.24586426 179.71072266 244.80032227 180.15332031 245.37158203 C181.2884018 246.82650063 182.43664668 248.2711233 183.5859375 249.71484375 C184.05257812 250.46894531 184.51921875 251.22304688 185 252 C184 255 184 255 181.20288086 256.60644531 C179.9619053 257.19115031 178.71541029 257.76422465 177.46484375 258.328125 C176.79393204 258.64021912 176.12302032 258.95231323 175.43177795 259.27386475 C173.27138532 260.27568921 171.10460079 261.26278395 168.9375 262.25 C167.5353837 262.89882498 166.1336862 263.5485558 164.73242188 264.19921875 C161.21735205 265.82675221 157.69111841 267.42822171 154.15985107 269.02026367 C151.93819286 270.02803651 149.72526215 271.05356986 147.51220703 272.08007812 C146.07223082 272.73631538 144.63197385 273.39193697 143.19140625 274.046875 C142.52737289 274.35917053 141.86333954 274.67146606 141.17918396 274.9932251 C138.6946104 276.10842678 136.52127724 276.98124572 133.78100586 277.07983398 C130.91400849 275.34155717 129.76860878 272.582075 128.3125 269.67578125 C127.97304855 269.02598801 127.63359711 268.37619476 127.28385925 267.70671082 C126.17680283 265.58150342 125.0886163 263.44720272 124 261.3125 C123.24150264 259.84947533 122.48148441 258.38723817 121.7199707 256.92578125 C120.57147622 254.72114459 119.42398192 252.51605392 118.28157043 250.30825806 C114.55513438 243.10891178 110.67010546 236.00247426 106.75585938 228.90356445 C104.05453905 223.98745722 101.47635225 219.03351786 99 214 C89.14864946 215.87108031 79.75644554 219.25913154 70.25830078 222.41015625 C67.97804647 223.16502522 65.69612491 223.91468106 63.4140625 224.6640625 C62.71407135 224.89839996 62.0140802 225.13273743 61.2928772 225.37417603 C58.40069756 226.32327237 56.06632297 227 53 227 C53.09578339 227.69331924 53.19156677 228.38663849 53.29025269 229.10096741 C54.20238197 235.70379657 55.11416741 242.30667311 56.02558708 248.90960026 C56.49392581 252.3024704 56.96238761 255.69532345 57.43115234 259.08813477 C58.47836241 266.66826991 59.522291 274.24884608 60.56286621 281.82989502 C60.93882516 284.55635854 61.31992566 287.2820097 61.70410156 290.00732422 C61.88874955 291.33690328 62.07332925 292.66649182 62.2578125 293.99609375 C62.40621582 295.04853271 62.55461914 296.10097168 62.70751953 297.18530273 C63.01486202 300.14302521 63.05251466 303.02849954 63 306 C53.69053702 310.74257336 44.30314015 315.20204464 34.75 319.4375 C33.48321381 320.00131431 32.21653206 320.56536331 30.94995117 321.12963867 C28.45540493 322.24056947 25.96011121 323.34979727 23.46435547 324.45800781 C20.36931299 325.83561798 17.27908613 327.22317399 14.19140625 328.6171875 C12.93408691 329.18288452 12.93408691 329.18288452 11.65136719 329.76000977 C10.13394394 330.44285023 8.61759824 331.12809226 7.10253906 331.81616211 C2.22615892 334 2.22615892 334 0 334 C0 223.78 0 113.56 0 0 Z " transform="translate(262,89)" style="fill: #000000; opacity: 1;" data-index="1"></path><path d="M0 0 C0 109.89 0 219.78 0 333 C-5.64246399 331.11917867 -10.69622963 329.36336925 -16.02734375 326.92578125 C-16.6546489 326.64156311 -17.28195404 326.35734497 -17.92826843 326.06451416 C-21.3276917 324.52143528 -24.71427347 322.95173423 -28.09716797 321.37280273 C-34.68946543 318.31055831 -41.09004873 315.37148219 -48.14526367 313.50292969 C-57.02698281 310.13457465 -57.02698281 310.13457465 -58.97410583 305.86303711 C-59.68534585 303.16097094 -60.18592107 300.48473765 -60.6328125 297.7265625 C-61.02757148 295.63825521 -61.42327145 293.55012561 -61.81982422 291.4621582 C-62.01284119 290.38946686 -62.20585815 289.31677551 -62.40472412 288.21157837 C-63.34064501 283.16218298 -64.46515341 278.15728496 -65.578125 273.14453125 C-66.01823332 271.12119703 -66.45709932 269.09759221 -66.89477539 267.07373047 C-67.11602081 266.05196716 -67.33726624 265.03020386 -67.56521606 263.97747803 C-71.89651177 243.95881954 -76.11772728 223.9214236 -80.18261719 203.84692383 C-80.35879074 202.97744614 -80.53496429 202.10796844 -80.71647644 201.21214294 C-81.0393068 199.6169291 -81.36126706 198.02153874 -81.68208313 196.42591858 C-82.72380063 191.26907862 -83.84235684 186.13202802 -85 181 C-86.93455336 184.5451461 -88.16730407 188.27123926 -89.41088867 192.09741211 C-89.64377594 192.80553543 -89.87666321 193.51365875 -90.11660767 194.24324036 C-90.8866346 196.58699886 -91.65228734 198.93216238 -92.41796875 201.27734375 C-92.95856309 202.92535054 -93.49944635 204.57326258 -94.04060364 206.22108459 C-95.46922016 210.57361271 -96.89421143 214.92731906 -98.31835938 219.28131104 C-99.74223382 223.63282734 -101.16895527 227.9834095 -102.59570312 232.33398438 C-103.01163066 233.60228309 -103.01163066 233.60228309 -103.43596077 234.89620399 C-103.98973711 236.58483502 -104.54352488 238.27346229 -105.09732437 239.96208572 C-105.91235244 242.44771542 -106.72694675 244.93348695 -107.54147339 247.41928101 C-111.32367351 258.95870431 -115.13633736 270.48755955 -119 282 C-125.22262412 280.05336913 -131.14083244 277.72816973 -137.06640625 275.015625 C-138.32214699 274.44760162 -138.32214699 274.44760162 -139.60325623 273.86810303 C-142.25824719 272.66622846 -144.91047197 271.45839644 -147.5625 270.25 C-150.18124621 269.06109456 -152.80057073 267.87347682 -155.42025757 266.68664551 C-157.13342005 265.91016672 -158.84601274 265.13242947 -160.55801392 264.35339355 C-164.62532581 262.50674187 -168.70067119 260.68745489 -172.80810547 258.93164062 C-173.55382309 258.61193298 -174.29954071 258.29222534 -175.06785583 257.96282959 C-176.46383485 257.36727273 -177.86221995 256.77731374 -179.26332092 256.19390869 C-183.89008321 254.21983359 -183.89008321 254.21983359 -185 252 C-177.93035513 242.07377176 -170.81026975 232.18481511 -163.66894531 222.31005859 C-162.03481701 220.04819171 -160.4036287 217.78423692 -158.7734375 215.51953125 C-152.64443398 207.00925456 -146.46352525 198.54026386 -140.23071289 190.10571289 C-135.7440124 184.02749886 -131.31406202 177.91020986 -126.90112305 171.77832031 C-122.9099397 166.24022773 -118.87028861 160.73943264 -114.8125 155.25 C-110.83121052 149.86354952 -106.87573462 144.46294022 -103 139 C-98.54172044 132.71594881 -93.97309936 126.51639088 -89.39160156 120.32177734 C-85.30209875 114.78598694 -81.26421777 109.21555001 -77.25 103.625 C-71.98371066 96.29666724 -66.56185918 89.10612256 -61 82 C-58.32678981 84.67321019 -58.40674593 86.55528357 -57.8515625 90.28125 C-57.65320801 91.58352539 -57.45485352 92.88580078 -57.25048828 94.22753906 C-57.04190532 95.65167999 -56.8334116 97.07583399 -56.625 98.5 C-56.40299944 99.97375633 -56.18017115 101.4473882 -55.95654297 102.92089844 C-55.50588932 105.89782534 -55.05948771 108.87533619 -54.6171875 111.85351562 C-53.80475943 117.32182943 -52.96637358 122.78607452 -52.125 128.25 C-51.97466309 129.23210449 -51.82432617 130.21420898 -51.66943359 131.22607422 C-48.86262722 149.49690053 -45.91490937 167.74617882 -43 186 C-42.67 186 -42.34 186 -42 186 C-39.7400742 161.07551512 -37.50713575 136.14903035 -35.40234375 111.2109375 C-35.30272968 110.03068717 -35.30272968 110.03068717 -35.20110321 108.8265934 C-34.60825805 101.79760757 -34.01738674 94.76845732 -33.43035889 87.73898315 C-33.36826359 86.99551604 -33.30616829 86.25204893 -33.24219131 85.48605251 C-33.11889161 84.00909614 -32.99570855 82.53213003 -32.87264633 81.05515385 C-32.5777251 77.52218097 -32.27918502 73.98959005 -31.9720459 70.45765686 C-31.45503108 64.50104523 -30.9579615 58.54759217 -30.58251953 52.58007812 C-29.44454837 35.74235426 -29.44454837 35.74235426 -23.25 28.875 C-22.08243331 27.42650626 -20.91580201 25.97725815 -19.75 24.52734375 C-19.14027344 23.80015137 -18.53054687 23.07295898 -17.90234375 22.32373047 C-14.49969549 18.16736418 -11.40147296 13.78528976 -8.25 9.4375 C-7.07012404 7.83025509 -5.88803707 6.22462949 -4.703125 4.62109375 C-4.20458008 3.9448999 -3.70603516 3.26870605 -3.19238281 2.57202148 C-1.24149713 0 -1.24149713 0 0 0 Z " transform="translate(250,90)" style="fill: #000000; opacity: 1;" data-index="2"></path><path d="M0 0 C0.99 0 1.98 0 3 0 C2.67 3.63 2.34 7.26 2 11 C1.67 11 1.34 11 1 11 C0.67 7.37 0.34 3.74 0 0 Z " transform="translate(206,272)" style="fill: rgb(220, 221, 221); opacity: 1; visibility: hidden;" data-index="4"></path></svg>