<svg xmlns="http://www.w3.org/2000/svg" id="katman_1" version="1.1" viewBox="202.9 79.8 436 436">
  <!-- Generator: Adobe Illustrator 29.2.1, SVG Export Plug-In . SVG Version: 2.1.0 Build 116)  -->
  <path d="M621.6,252.3c-18.7.4-29.9,22.8-31.3,53.9h48.6v-44.8c-.9-1.3-1.9-2.5-2.9-3.5-3.8-3.6-8.6-5.5-14.4-5.6Z"/>
  <path d="M589.5,314.9c-1.9,34.1,19.3,62.3,47.1,64.3.8,0,1.5,0,2.3.1v-64.5h-49.4Z"/>
  <path d="M620.3,415.5c-44.4,0-69.5-37-70.5-83.3,0-2.9,0-5.8.1-8.6,0-.6,0-1.2,0-1.7,0-.6,0-1.2.1-1.8,1.6-20.5,8.2-38.7,19.1-52.1,6.8-8.4,14.9-14.7,24.1-19,8.1-4.1,19.4-6.3,28.7-6.3h.4c5.7,0,11.3.6,16.6,1.8v-93c0-39.6-32.1-71.7-71.7-71.7h-292.6c-39.6,0-71.7,32.1-71.7,71.7v292.6c0,39.6,32.1,71.7,71.7,71.7h292.6c39.6,0,71.7-32.1,71.7-71.7v-30.9c-5.7,1.6-12,2.5-18.7,2.5ZM551.9,410.8h-84.9v-2.5h.3c11-2.6,17.1-6.2,18.2-17.8v-172.4l-81.8,192.3h-4.5l-79.5-187.1v162.9c0,14.8,6.2,18.9,18.3,21.6h.3v2.6h-48.7v-2.5h.3c12.2-2.8,18.4-6.9,18.4-21.7v-172.9c0-14.8-6.2-18.9-18.3-21.6h-.3v-2.6h71.8l61.9,145.5,61.9-145.5h66.7v2.5h-.3c-12.2,2.8-18.3,6.9-18.3,21.7h0v177.2c1.1,11.7,7.4,15.3,18.4,17.8h.3v2.6Z"/>
</svg>